# xmcd
#
# Track frame offsets:
#	150
#	12078
#	29964
#	43778
#	52158
#	71751
#	90100
#	101163
#	120373
#	131203
#	144334
#	154423
#
# Disc length: 2250 seconds
#
# Revision: 1
# Processed by: cddbd v1.4PL0 Copyright (c) Steve Scherf et al.
# Submitted via: audiograbber 1.81.01
#
DISCID=aa08c80c
DTITLE=Anna Identici - I Grandi Successi Originali cd2
DYEAR=1900
DGENRE=Pop
TTITLE0=L'uva fogarina
TTITLE1=Amore a ore
TTITLE2=Perchè sono una donna
TTITLE3=Sciur padrun da li beli braghi bianchi
TTITLE4=Ninna nanna della guerra
TTITLE5=Lo stesso sole
TTITLE6=Il canto delle tessitrici
TTITLE7=Anna come sei
TTITLE8=E lee la va in filanda
TTITLE9=A mezzanotte in punto
TTITLE10=Amore mio non piangere
TTITLE11=E per la strada
EXTD=
EXTT0=
EXTT1=
EXTT2=
EXTT3=
EXTT4=
EXTT5=
EXTT6=
EXTT7=
EXTT8=
EXTT9=
EXTT10=
EXTT11=
PLAYORDER=
